<!-- https://www.iconfont.cn/illustrations/detail?cid=33272 -->
<svg width="146" height="163" viewBox="0 0 146 163" fill="none" xmlns="http://www.w3.org/2000/svg">
<path d="M40.1213 69.5051L39.969 153.083L31.1748 152.126L31.3271 68.5481L40.1213 69.5051Z" fill="#FF5432"/>
<path d="M40.121 69.5048L45.3337 65.7566L45.1742 149.327L39.9688 153.083L40.121 69.5048Z" fill="url(#paint0_linear)"/>
<path d="M31.3281 68.5483L36.5409 64.8L45.3351 65.757L40.1224 69.5053L31.3281 68.5483Z" fill="url(#paint1_linear)"/>
<path d="M64.4887 114.049L64.4089 155.838L55.6074 154.881L55.6872 113.092L64.4887 114.049Z" fill="#FF5432"/>
<path d="M64.4889 114.049L69.6944 110.301L69.6219 152.089L64.4092 155.838L64.4889 114.049Z" fill="url(#paint2_linear)"/>
<path d="M55.6875 113.092L60.9002 109.344L69.6945 110.301L64.489 114.049L55.6875 113.092Z" fill="url(#paint3_linear)"/>
<path d="M89.487 103.297L89.3782 159.013L80.584 158.056L80.6927 102.34L89.487 103.297Z" fill="#FF5432"/>
<path d="M89.4867 103.297L94.6922 99.5488L94.5907 155.265L89.3779 159.013L89.4867 103.297Z" fill="url(#paint4_linear)"/>
<path d="M80.6924 102.34L85.8979 98.592L94.6921 99.549L89.4866 103.297L80.6924 102.34Z" fill="url(#paint5_linear)"/>
<path d="M114.413 92.5383L114.289 162.189L105.495 161.232L105.626 91.5813L114.413 92.5383Z" fill="#FF5432"/>
<path d="M114.412 92.5383L119.625 88.79L119.495 158.433L114.289 162.189L114.412 92.5383Z" fill="url(#paint6_linear)"/>
<path d="M105.625 91.5813L110.83 87.833L119.625 88.79L114.412 92.5383L105.625 91.5813Z" fill="url(#paint7_linear)"/>
<g filter="url(#filter0_bf)">
<path d="M145.001 33.185V138.016C145.001 143.486 142.704 148.165 139.016 151.253C141.484 148.299 142.952 144.429 142.952 140.065V35.2339C142.952 24.7032 134.413 15.278 123.891 14.1725L19.0608 3.15577C14.0004 2.62208 9.40688 4.10877 5.99512 6.95826C9.48312 2.80316 14.9534 0.458762 21.1098 1.10681L125.94 12.1236C136.462 13.229 145.001 22.6543 145.001 33.185Z" fill="url(#paint8_linear)" fill-opacity="0.6"/>
</g>
<g filter="url(#filter1_b)">
<path d="M142.951 35.2338V140.064C142.951 144.429 141.483 148.298 139.015 151.253C135.527 155.417 130.047 157.771 123.891 157.123L19.0601 146.106C8.5294 144.991 0 135.566 0 125.036V20.2049C0 14.7347 2.30627 10.0459 5.9944 6.95813C9.40616 4.10864 13.9997 2.62195 19.0601 3.15564L123.891 14.1724C134.412 15.2779 142.951 24.7031 142.951 35.2338Z" fill="url(#paint9_linear)"/>
</g>
<defs>
<filter id="filter0_bf" x="-0.00488281" y="-5" width="151.005" height="162.253" filterUnits="userSpaceOnUse" color-interpolation-filters="sRGB">
<feFlood flood-opacity="0" result="BackgroundImageFix"/>
<feGaussianBlur in="BackgroundImage" stdDeviation="3"/>
<feComposite in2="SourceAlpha" operator="in" result="effect1_backgroundBlur"/>
<feBlend mode="normal" in="SourceGraphic" in2="effect1_backgroundBlur" result="shape"/>
<feGaussianBlur stdDeviation="0.5" result="effect2_foregroundBlur"/>
</filter>
<filter id="filter1_b" x="-6" y="-2.95166" width="154.951" height="166.181" filterUnits="userSpaceOnUse" color-interpolation-filters="sRGB">
<feFlood flood-opacity="0" result="BackgroundImageFix"/>
<feGaussianBlur in="BackgroundImage" stdDeviation="3"/>
<feComposite in2="SourceAlpha" operator="in" result="effect1_backgroundBlur"/>
<feBlend mode="normal" in="SourceGraphic" in2="effect1_backgroundBlur" result="shape"/>
</filter>
<linearGradient id="paint0_linear" x1="42.6512" y1="65.7566" x2="42.6512" y2="153.083" gradientUnits="userSpaceOnUse">
<stop stop-color="#DD603F"/>
<stop offset="1" stop-color="#CC3112"/>
</linearGradient>
<linearGradient id="paint1_linear" x1="32.173" y1="64.8238" x2="44.2497" y2="65.4971" gradientUnits="userSpaceOnUse">
<stop stop-color="#FFD8B7"/>
<stop offset="1" stop-color="#EE8E64"/>
</linearGradient>
<linearGradient id="paint2_linear" x1="67.0518" y1="110.301" x2="67.0518" y2="155.838" gradientUnits="userSpaceOnUse">
<stop stop-color="#DD603F"/>
<stop offset="1" stop-color="#CC3112"/>
</linearGradient>
<linearGradient id="paint3_linear" x1="56.5324" y1="109.367" x2="68.6091" y2="110.041" gradientUnits="userSpaceOnUse">
<stop stop-color="#FFD8B7"/>
<stop offset="1" stop-color="#EE8E64"/>
</linearGradient>
<linearGradient id="paint4_linear" x1="92.0351" y1="99.5488" x2="92.0351" y2="159.013" gradientUnits="userSpaceOnUse">
<stop stop-color="#DD603F"/>
<stop offset="1" stop-color="#CC3112"/>
</linearGradient>
<linearGradient id="paint5_linear" x1="81.5369" y1="98.6158" x2="93.6073" y2="99.2884" gradientUnits="userSpaceOnUse">
<stop stop-color="#FFD8B7"/>
<stop offset="1" stop-color="#EE8E64"/>
</linearGradient>
<linearGradient id="paint6_linear" x1="116.957" y1="88.79" x2="116.957" y2="162.189" gradientUnits="userSpaceOnUse">
<stop stop-color="#DD603F"/>
<stop offset="1" stop-color="#CC3112"/>
</linearGradient>
<linearGradient id="paint7_linear" x1="106.469" y1="87.8567" x2="118.54" y2="88.5293" gradientUnits="userSpaceOnUse">
<stop stop-color="#FFD8B7"/>
<stop offset="1" stop-color="#EE8E64"/>
</linearGradient>
<linearGradient id="paint8_linear" x1="5.71871" y1="1" x2="139.139" y2="162.534" gradientUnits="userSpaceOnUse">
<stop stop-color="#F7F5DB"/>
<stop offset="0.350158" stop-color="#F6EACB"/>
<stop offset="0.501968" stop-color="#FCD5B0"/>
<stop offset="0.633187" stop-color="#FDD5AC"/>
<stop offset="1" stop-color="#FCCEAC"/>
</linearGradient>
<linearGradient id="paint9_linear" x1="30.0197" y1="-3.76509" x2="54.747" y2="164.773" gradientUnits="userSpaceOnUse">
<stop stop-color="#FE5432" stop-opacity="0.1"/>
<stop offset="0.726362" stop-color="#EB4929" stop-opacity="0.215"/>
<stop offset="1" stop-color="#D63D1F" stop-opacity="0.29"/>
</linearGradient>
</defs>
</svg>